Coordinates
version=1
nRows=17
nColumns=24
inDegrees=yes

Units are S.I. units (second, meters, Newtons, ...)
Angles are in degrees.

endheader
time	pelvis_tilt	pelvis_list	pelvis_rotation	pelvis_tx	pelvis_ty	pelvis_tz	hip_flexion_r	hip_adduction_r	hip_rotation_r	knee_angle_r	ankle_angle_r	subtalar_angle_r	mtp_angle_r	hip_flexion_l	hip_adduction_l	hip_rotation_l	knee_angle_l	ankle_angle_l	subtalar_angle_l	mtp_angle_l	lumbar_extension	lumbar_bending	lumbar_rotation
      1.83400000	      5.62904860	      3.28595133	     -4.97482029	      1.44258720	      1.03529555	      0.25933635	     10.85602438	     -6.59069513	     -4.76034144	    -63.99690995	      4.75114617	     -2.22894034	      1.70493202	      3.68797537	      9.21409581	      1.63437916	    -15.64464386	      6.97397346	    -11.60745046	     -0.36480333	     -3.39882612	     -7.08914032	      4.33491882
      1.83816667	      5.70613473	      3.15800451	     -4.75237568	      1.44690897	      1.03601954	      0.25873052	     11.29507410	     -6.40120566	     -4.81971764	    -63.51298735	      5.08268014	     -2.29279990	      1.84201463	      3.19899809	      9.14801100	      1.95735081	    -15.41179606	      6.99137992	    -11.70517715	     -0.43706635	     -3.60765542	     -6.94579059	      4.06693952
      1.84233333	      5.77115963	      3.00413406	     -4.51697604	      1.45127969	      1.03672715	      0.25810661	     11.71886529	     -6.18382429	     -4.89805663	    -62.96413320	      5.38250264	     -2.40567401	      1.90878692	      2.73417721	      9.04596062	      2.24665866	    -15.21981637	      7.07205430	    -11.74724279	     -0.47283818	     -3.80039735	     -6.75409707	      3.91509274
      1.84650000	      5.87715060	      2.88141662	     -4.30018304	      1.45561116	      1.03745905	      0.25750352	     12.09589901	     -6.00954967	     -4.96922200	    -62.37774028	      5.62006054	     -2.59656580	      2.01294962	      2.19614561	      8.98373131	      2.58407067	    -14.94675311	      7.06605082	    -11.87913769	     -0.54395601	     -4.03038302	     -6.60237043	      3.58891732
      1.85066667	      5.92629643	      2.74801367	     -4.06541194	      1.45997166	      1.03807793	      0.25688222	     12.51160174	     -5.81962264	     -5.05617438	    -61.74392553	      5.83933466	     -2.84729622	      2.13714245	      1.73652518	      8.90049628	      2.91057718	    -14.71139151	      7.05868625	    -12.03329956	     -0.63958628	     -4.19747732	     -6.43164154	      3.31625973
      1.85483333	      6.00907261	      2.61541438	     -3.84061221	      1.46428186	      1.03870736	      0.25626748	     12.88242340	     -5.63650297	     -5.14031697	    -61.06860240	      6.02709652	     -3.09032281	      2.20284723	      1.24314103	      8.81530042	      3.21776826	    -14.47299841	      7.11703487	    -12.11710295	     -0.69565891	     -4.39569518	     -6.25306664	      3.11814441
      1.85900000	      6.04740729	      2.45841181	     -3.58754680	      1.46861972	      1.03927423	      0.25563703	     13.26876040	     -5.42564930	     -5.25743932	    -60.32905126	      6.22303224	     -3.37749230	      2.24036092	      0.82124781	      8.69401494	      3.51922617	    -14.29819668	      7.18004184	    -12.18354245	     -0.73335089	     -4.55591040	     -6.05910584	      2.93320627
      1.86316667	      6.10558616	      2.34792212	     -3.36635723	      1.47293780	      1.03980118	      0.25503021	     13.63985867	     -5.26919517	     -5.34152997	    -59.57474331	      6.39459253	     -3.69015190	      2.33845331	      0.34366417	      8.63139299	      3.88231353	    -14.02303689	      7.12350829	    -12.42355083	     -0.86008085	     -4.72118751	     -5.90497692	      2.58949717
      1.86733333	      6.15486694	      2.19674681	     -3.10797645	      1.47722500	      1.04031088	      0.25439577	     13.98679799	     -5.06947626	     -5.46373937	    -58.75387146	      6.52203238	     -4.02929547	      2.35336760	     -0.08095137	      8.50778976	      4.16702821	    -13.85335759	      7.21052916	    -12.45493846	     -0.89246706	     -4.89300373	     -5.71017680	      2.45063102
      1.87150000	      6.21373096	      2.06968825	     -2.89840852	      1.48156394	      1.04081411	      0.25383800	     14.31529077	     -4.88747200	     -5.53708827	    -57.89155090	      6.58459649	     -4.42960970	      2.36293773	     -0.54831595	      8.41175025	      4.46669463	    -13.60568842	      7.22057056	    -12.57394122	     -0.94581919	     -5.04501417	     -5.53716436	      2.18621234
      1.87566667	      6.22508801	      1.94074107	     -2.66050418	      1.48584118	      1.04119076	      0.25324096	     14.68247346	     -4.71189731	     -5.64132960	    -57.00731185	      6.72203208	     -4.74531697	      2.36062271	     -0.93036865	      8.30609096	      4.75214168	    -13.42237717	      7.26230690	    -12.66939173	     -0.98146625	     -5.16649066	     -5.35967461	      2.02337827
      1.87983333	      6.25153491	      1.82944824	     -2.45325548	      1.49016709	      1.04157964	      0.25269937	     15.02364429	     -4.54589139	     -5.70440596	    -56.07776747	      6.73376054	     -5.14591013	      2.34197443	     -1.35296872	      8.21946004	      5.04881298	    -13.18550987	      7.25598665	    -12.83049009	     -1.03516350	     -5.28497446	     -5.20832214	      1.75677932
      1.88400000	      6.27088633	      1.70557781	     -2.23526521	      1.49448119	      1.04192661	      0.25215221	     15.34979841	     -4.37035915	     -5.78402694	    -55.10402120	      6.77725248	     -5.49004013	      2.31191399	     -1.75565598	      8.11439094	      5.34655270	    -12.97603272	      7.27219865	    -12.96337558	     -1.08588397	     -5.39942584	     -5.03809677	      1.55713070
      1.88816667	      6.26913910	      1.59513746	     -2.01514436	      1.49880157	      1.04220496	      0.25161519	     15.68448764	     -4.20805001	     -5.85483443	    -54.10697226	      6.79624739	     -5.82713957	      2.26807458	     -2.12735196	      8.01808735	      5.62516540	    -12.78043646	      7.29435628	    -13.08702518	     -1.13506662	     -5.48920680	     -4.88226985	      1.35788115
      1.89233333	      6.27734594	      1.48270497	     -1.80917242	      1.50310883	      1.04247585	      0.25110964	     15.99746401	     -4.04113030	     -5.91449878	    -53.06761155	      6.80283296	     -6.14465369	      2.20912706	     -2.50583464	      7.91705487	      5.89704195	    -12.58697466	      7.31422918	    -13.20529531	     -1.18825868	     -5.59720202	     -4.72139235	      1.17413798
      1.89650000	      6.23849544	      1.37300270	     -1.58602047	      1.50740301	      1.04263357	      0.25058641	     16.34527520	     -3.88169043	     -5.98383721	    -52.00440624	      6.80078934	     -6.40220999	      2.15967995	     -2.81403972	      7.81230901	      6.15113797	    -12.44149875	      7.38371770	    -13.28929138	     -1.22077624	     -5.64520863	     -4.56050221	      1.03758619
      1.90066667	      6.20661063	      1.27296785	     -1.37926251	      1.51173547	      1.04278691	      0.25011600	     16.67229055	     -3.72375951	     -6.02481478	    -50.90421569	      6.75277583	     -6.68842202	      2.10101643	     -3.14074310	      7.71402308	      6.40227562	    -12.26516513	      7.42555501	    -13.38159537	     -1.25294693	     -5.68604469	     -4.41671667	      0.87673296
